<svg width="83" height="100" viewBox="0 0 83 100" fill="none" xmlns="http://www.w3.org/2000/svg">
<g clip-path="url(#clip0_30_62)">
<path d="M0.78833 7.74254L8.1809 85.0472L41.4581 95.2425L74.7352 85.0472L82.1278 7.74254H0.78833ZM67.1096 23.3675L66.0929 32.6058L41.6699 42.2347L41.6063 42.2543H65.2244L62.5131 70.8871L41.7122 76.4925L20.7843 70.7894L19.4286 56.3558H29.7867L30.4645 63.8363L41.6063 66.4339L53.193 63.4261L53.9767 51.3949L18.7508 51.2972V51.2777L18.7084 51.2972L17.9459 42.2543L41.6911 33.1332L43.0679 32.6058H17.035L15.8065 23.3675H67.1096Z" fill="url(#paint0_linear_30_62)"/>
</g>
<defs>
<linearGradient id="paint0_linear_30_62" x1="41.4581" y1="7.74254" x2="41.4581" y2="95.2425" gradientUnits="userSpaceOnUse">
<stop stop-color="#A836A7"/>
<stop offset="0.52" stop-color="#5E115E"/>
<stop offset="1" stop-color="#330036"/>
</linearGradient>
<clipPath id="clip0_30_62">
<rect width="81.3394" height="100" fill="white" transform="translate(0.78833)"/>
</clipPath>
</defs>
</svg>
