<svg width="102" height="69" viewBox="0 0 102 69" fill="none" xmlns="http://www.w3.org/2000/svg">
<path d="M9.5625 0.375C4.2832 0.375 0 4.19629 0 8.90625C0 11.59 1.41445 14.1139 3.825 15.7312L47.175 44.7375C49.4461 46.2482 52.5539 46.2482 54.825 44.7375L98.175 15.7312C100.586 14.1139 102 11.59 102 8.90625C102 4.19629 97.7168 0.375 92.4375 0.375H9.5625ZM0 20.2812V57.25C0 63.524 5.71758 68.625 12.75 68.625H89.25C96.2824 68.625 102 63.524 102 57.25V20.2812L58.65 49.2875C54.1078 52.3268 47.8922 52.3268 43.35 49.2875L0 20.2812Z" fill="url(#paint0_linear_33_213)"/>
<defs>
<linearGradient id="paint0_linear_33_213" x1="6.5" y1="3.5" x2="68.5" y2="60.5" gradientUnits="userSpaceOnUse">
<stop stop-color="#B64AB6"/>
<stop offset="0.865511" stop-color="#591059"/>
</linearGradient>
</defs>
</svg>
