<svg width="97" height="96" viewBox="0 0 97 96" fill="none" xmlns="http://www.w3.org/2000/svg">
<path d="M97 13.7143C97 6.15 90.7859 0 83.1429 0H13.8571C6.21406 0 0 6.15 0 13.7143V82.2857C0 89.85 6.21406 96 13.8571 96H83.1429C90.7859 96 97 89.85 97 82.2857V13.7143ZM57.5504 80.5071C57.5504 80.1214 57.5504 79.2214 57.5721 78.0214C57.5937 75.5786 57.5938 71.85 57.5938 68.6571C57.5938 65.3143 56.4679 63.1929 55.1471 62.0786C63.1583 61.2 71.6025 60.1071 71.6025 46.4143C71.6025 42.5143 70.1951 40.5643 67.9 38.0571C68.2681 37.1357 69.5022 33.3429 67.5319 28.4143C64.5223 27.4929 57.6371 32.25 57.6371 32.25C54.779 31.4571 51.6828 31.05 48.6299 31.05C45.577 31.05 42.4808 31.4571 39.6228 32.25C39.6228 32.25 32.7375 27.4929 29.7279 28.4143C27.7576 33.3214 28.9701 37.1143 29.3598 38.0571C27.0647 40.5643 25.9821 42.5143 25.9821 46.4143C25.9821 60.0429 34.0583 61.2 42.0694 62.0786C41.0301 63 40.0991 64.5857 39.7743 66.8571C37.7174 67.7786 32.456 69.3643 29.3165 63.8786C27.3462 60.4929 23.7953 60.2143 23.7953 60.2143C20.2877 60.1714 23.5571 62.4 23.5571 62.4C25.8955 63.4714 27.5411 67.5857 27.5411 67.5857C29.6413 73.95 39.6877 71.8071 39.6877 71.8071C39.6877 73.7357 39.7094 76.4571 39.7094 78.3643C39.7094 79.3929 39.731 80.2071 39.731 80.5071C39.731 81.4286 39.0815 82.5429 37.2411 82.2214C22.9509 77.4857 12.9478 64.0286 12.9478 48.3C12.9478 28.6286 28.1473 13.6929 48.0237 13.6929C67.9 13.6929 84.0089 28.6286 84.0089 48.3C84.0306 64.0286 74.3306 77.5071 60.0404 82.2214C58.2216 82.5429 57.5504 81.4286 57.5504 80.5071ZM37.9556 68.7643C37.9123 68.4429 38.1937 68.1643 38.6051 68.0786C39.0165 68.0357 39.4062 68.2071 39.4496 68.4857C39.5145 68.7643 39.233 69.0429 38.8 69.1286C38.3886 69.2143 37.9989 69.0429 37.9556 68.7643ZM35.9853 69.45C35.5089 69.4929 35.1842 69.2571 35.1842 68.9357C35.1842 68.6571 35.5089 68.4214 35.942 68.4214C36.3533 68.3786 36.7431 68.6143 36.7431 68.9357C36.7431 69.2143 36.4183 69.45 35.9853 69.45ZM32.8891 68.9786C32.4777 68.8929 32.1962 68.5714 32.2828 68.2929C32.3694 68.0143 32.8025 67.8857 33.1705 67.9714C33.6036 68.1 33.885 68.4214 33.7768 68.7C33.6902 68.9786 33.2571 69.1071 32.8891 68.9786ZM30.1826 67.4143C29.8578 67.1357 29.7712 66.7286 29.9877 66.5357C30.1826 66.3 30.594 66.3429 30.9187 66.6643C31.2002 66.9429 31.3085 67.3714 31.1136 67.5429C30.9187 67.7786 30.5074 67.7357 30.1826 67.4143ZM28.3422 65.2714C28.104 64.95 28.104 64.5857 28.3422 64.4357C28.5804 64.2429 28.9484 64.3929 29.1433 64.7143C29.3815 65.0357 29.3815 65.4214 29.1433 65.5929C28.9484 65.7214 28.5804 65.5929 28.3422 65.2714ZM26.9781 63.3857C26.74 63.1071 26.6966 62.7857 26.8915 62.6357C27.0864 62.4429 27.4112 62.55 27.6493 62.7643C27.8875 63.0429 27.9308 63.3643 27.7359 63.5143C27.5411 63.7071 27.2163 63.6 26.9781 63.3857ZM25.679 62.0143C25.3975 61.8857 25.2676 61.65 25.3542 61.4571C25.4408 61.3286 25.679 61.2643 25.9605 61.3714C26.242 61.5214 26.3719 61.7571 26.2853 61.9286C26.1987 62.1214 25.9172 62.1643 25.679 62.0143Z" fill="url(#paint0_linear_31_104)"/>
<defs>
<linearGradient id="paint0_linear_31_104" x1="55.1796" y1="130.771" x2="-38.5136" y2="84.3657" gradientUnits="userSpaceOnUse">
<stop stop-color="#330036"/>
<stop offset="0.46" stop-color="#550F56"/>
<stop offset="1" stop-color="#761F75"/>
</linearGradient>
</defs>
</svg>
