<svg width="115" height="115" viewBox="0 0 115 115" fill="none" xmlns="http://www.w3.org/2000/svg">
<g clip-path="url(#clip0_151_63)">
<path fill-rule="evenodd" clip-rule="evenodd" d="M57.5 0C89.2572 0 115 26.3921 115 58.9543C115 84.9961 98.5435 107.088 75.7102 114.89C72.795 115.471 71.76 113.63 71.76 112.06C71.76 110.117 71.829 103.769 71.829 95.8801C71.829 90.3831 69.989 86.7954 67.9248 84.9669C80.73 83.5064 94.185 78.5207 94.185 55.8772C94.185 49.4372 91.954 44.182 88.2625 40.0535C88.8605 38.5642 90.8327 32.5677 87.699 24.4487C87.699 24.4487 82.8805 22.869 71.9037 30.4935C67.3095 29.1883 62.3875 28.5315 57.5 28.5085C52.6125 28.5315 47.6963 29.1883 43.1078 30.4935C32.1195 22.869 27.2895 24.4487 27.2895 24.4487C24.1673 32.5677 26.1395 38.5642 26.7318 40.0535C23.0575 44.182 20.8093 49.4372 20.8093 55.8772C20.8093 78.4632 34.2355 83.5254 47.0063 85.0146C45.3618 86.4866 43.8725 89.0834 43.355 92.8956C40.0775 94.4021 31.7515 97.0094 26.6225 87.9991C26.6225 87.9991 23.5808 82.3346 17.8078 81.9206C17.8078 81.9206 12.2015 81.8462 17.4167 85.5032C17.4167 85.5032 21.183 87.3144 23.7992 94.1282C23.7992 94.1282 27.1745 104.65 43.171 101.085C43.1998 106.013 43.2515 110.657 43.2515 112.06C43.2515 113.619 42.1935 115.442 39.3242 114.896C16.4737 107.105 0 85.0018 0 58.9543C0 26.3921 25.7485 0 57.5 0Z" fill="white"/>
</g>
<defs>
<clipPath id="clip0_151_63">
<rect width="115" height="115" fill="white"/>
</clipPath>
</defs>
</svg>
