<svg width="109" height="108" viewBox="0 0 109 108" fill="none" xmlns="http://www.w3.org/2000/svg">
<path d="M103.645 49.4876L59.0406 5.29538C57.8484 4.1175 56.2032 3.3885 54.3842 3.3885C52.5653 3.3885 50.9201 4.1175 49.7279 5.29538L40.4867 14.4686L52.2349 26.109C52.9843 25.8491 53.8461 25.7006 54.7453 25.7006C59.0678 25.7006 62.5695 29.1701 62.5695 33.453C62.5695 34.3609 62.4128 35.2283 62.1233 36.0383L62.1403 35.9843L73.4558 47.2028C74.212 46.9361 75.0874 46.7809 75.9969 46.7809C80.316 46.7809 83.8177 50.2504 83.8177 54.5299C83.8177 58.8094 80.316 62.2789 75.9969 62.2789C71.6778 62.2789 68.1762 58.8094 68.1762 54.5299C68.1762 53.4735 68.3907 52.4678 68.7757 51.5498L68.7552 51.6004L58.1618 41.1581V68.6779C60.7642 69.9773 62.5184 72.603 62.5184 75.6338C62.5184 79.92 59.0099 83.3963 54.684 83.3963C50.3581 83.3963 46.8496 79.92 46.8496 75.6338C46.8496 73.494 47.7216 71.5601 49.1352 70.1561C49.8539 69.444 50.7089 68.8669 51.6592 68.4619L51.7103 68.4416V40.6519C48.8423 39.4571 46.8667 36.693 46.8667 33.4766C46.8667 32.3966 47.0881 31.3706 47.49 30.4358L47.4696 30.4864L35.9258 18.9945L5.33765 49.2818C4.15228 50.4664 3.42334 52.0965 3.42334 53.8988C3.42334 55.701 4.15568 57.3311 5.34106 58.5158L49.9493 102.701C51.1381 103.883 52.7833 104.612 54.6022 104.612C56.4212 104.612 58.063 103.883 59.2552 102.701L103.652 58.7115C104.844 57.5336 105.584 55.9001 105.584 54.1013C105.584 52.3024 104.844 50.6689 103.652 49.491L103.645 49.4876Z" fill="white"/>
</svg>
