<svg width="96" height="96" viewBox="0 0 96 96" fill="none" xmlns="http://www.w3.org/2000/svg">
<path d="M41.6571 38.5071C40.4091 39.3415 39.3377 40.4135 38.5039 41.662C37.6702 42.9104 37.0905 44.3109 36.798 45.7833C36.2073 48.7571 36.8221 51.8438 38.5071 54.3643C40.1922 56.8848 42.8095 58.6327 45.7833 59.2234C48.7571 59.8142 51.8438 59.1994 54.3643 57.5143C56.8848 55.8292 58.6327 53.2119 59.2234 50.2381C59.8142 47.2643 59.1994 44.1776 57.5143 41.6571C55.8292 39.1366 53.2119 37.3888 50.2381 36.798C47.2643 36.2073 44.1776 36.8221 41.6571 38.5071ZM72.15 23.85C71.0357 22.7357 69.6857 21.8571 68.2071 21.2786C64.3286 19.7571 55.8643 19.8214 50.4 19.8857C49.5214 19.8857 48.7071 19.9071 48 19.9071C47.2929 19.9071 46.4571 19.9071 45.5571 19.8857C40.0929 19.8214 31.6714 19.7357 27.7929 21.2786C26.3143 21.8571 24.9857 22.7357 23.85 23.85C22.7143 24.9643 21.8571 26.3143 21.2786 27.7929C19.7571 31.6714 19.8429 40.1571 19.8857 45.6214C19.8857 46.5 19.9071 47.3143 19.9071 48C19.9071 48.6857 19.9071 49.5 19.8857 50.3786C19.8429 55.8429 19.7571 64.3286 21.2786 68.2071C21.8571 69.6857 22.7357 71.0143 23.85 72.15C24.9643 73.2857 26.3143 74.1429 27.7929 74.7214C31.6714 76.2429 40.1357 76.1786 45.6 76.1143C46.4786 76.1143 47.2929 76.0929 48 76.0929C48.7071 76.0929 49.5429 76.0929 50.4429 76.1143C55.9071 76.1786 64.3286 76.2643 68.2071 74.7214C69.6857 74.1429 71.0143 73.2643 72.15 72.15C73.2857 71.0357 74.1429 69.6857 74.7214 68.2071C76.2643 64.35 76.1786 55.9071 76.1143 50.4214C76.1143 49.5214 76.0929 48.6857 76.0929 47.9786C76.0929 47.2714 76.0929 46.4571 76.1143 45.5357C76.1786 40.0714 76.2643 31.6286 74.7214 27.75C74.1429 26.2714 73.2643 24.9429 72.15 23.8071V23.85ZM57.7714 33.3857C61.6474 35.9773 64.3351 40.0024 65.2433 44.5756C66.1515 49.1488 65.2058 53.8955 62.6143 57.7714C61.3311 59.6906 59.6824 61.3382 57.7625 62.6203C55.8425 63.9023 53.6888 64.7936 51.4244 65.2433C46.8512 66.1515 42.1045 65.2058 38.2286 62.6143C34.3526 60.0256 31.6638 56.0032 30.7536 51.432C29.8433 46.8608 30.7863 42.1152 33.375 38.2393C35.9637 34.3633 39.9861 31.6745 44.5573 30.7643C49.1285 29.8541 53.8741 30.797 57.75 33.3857H57.7714ZM64.0286 33.1071C63.3643 32.6571 62.8286 32.0143 62.5071 31.2643C62.1857 30.5143 62.1214 29.7 62.2714 28.8857C62.4214 28.0714 62.8286 27.3643 63.3857 26.7857C63.9429 26.2071 64.6929 25.8214 65.4857 25.6714C66.2786 25.5214 67.1143 25.5857 67.8643 25.9071C68.6143 26.2286 69.2571 26.7429 69.7071 27.4071C70.1571 28.0714 70.3929 28.8643 70.3929 29.6786C70.3929 30.2143 70.2857 30.75 70.0929 31.2429C69.9 31.7357 69.5786 32.1857 69.2143 32.5714C68.85 32.9571 68.3786 33.2571 67.8857 33.4714C67.3929 33.6857 66.8571 33.7929 66.3214 33.7929C65.5071 33.7929 64.7143 33.5571 64.05 33.1071H64.0286ZM96 13.7143C96 6.15 89.85 0 82.2857 0H13.7143C6.15 0 0 6.15 0 13.7143V82.2857C0 89.85 6.15 96 13.7143 96H82.2857C89.85 96 96 89.85 96 82.2857V13.7143ZM76.5 76.5C72.4929 80.5071 67.6286 81.7714 62.1429 82.05C56.4857 82.3714 39.5143 82.3714 33.8571 82.05C28.3714 81.7714 23.5071 80.5071 19.5 76.5C15.4929 72.4929 14.2286 67.6286 13.9714 62.1429C13.65 56.4857 13.65 39.5143 13.9714 33.8571C14.25 28.3714 15.4929 23.5071 19.5 19.5C23.5071 15.4929 28.3929 14.2286 33.8571 13.9714C39.5143 13.65 56.4857 13.65 62.1429 13.9714C67.6286 14.25 72.4929 15.4929 76.5 19.5C80.5071 23.5071 81.7714 28.3714 82.0286 33.8571C82.35 39.4929 82.35 56.4429 82.0286 62.1214C81.75 67.6071 80.5071 72.4714 76.5 76.4786V76.5Z" fill="url(#paint0_linear_31_102)"/>
<defs>
<linearGradient id="paint0_linear_31_102" x1="54.6108" y1="130.771" x2="-38.4928" y2="85.1331" gradientUnits="userSpaceOnUse">
<stop stop-color="#330036"/>
<stop offset="0.46" stop-color="#550F56"/>
<stop offset="1" stop-color="#761F75"/>
</linearGradient>
</defs>
</svg>
