<svg width="82" height="95" viewBox="0 0 82 95" fill="none" xmlns="http://www.w3.org/2000/svg">
<g clip-path="url(#clip0_30_60)">
<path d="M40.8395 94.7878C39.623 94.7878 38.3884 94.4572 37.3172 93.8328L26.1149 87.1295C24.4445 86.1745 25.2615 85.8439 25.8062 85.6603C28.0394 84.8706 28.4933 84.7053 30.8718 83.3279C31.126 83.181 31.4528 83.2361 31.707 83.4014L40.313 88.562C40.6216 88.7456 41.0574 88.7456 41.3479 88.562L74.8822 68.9847C75.1909 68.801 75.3906 68.4337 75.3906 68.0664V28.9118C75.3906 28.5261 75.1909 28.1772 74.8641 27.9752L41.3479 8.41622C41.0392 8.23257 40.6216 8.23257 40.313 8.41622L6.81492 27.9935C6.48811 28.1772 6.2884 28.5445 6.2884 28.9302V68.0664C6.2884 68.4337 6.48811 68.801 6.81492 68.9663L16.0019 74.3289C20.9949 76.845 24.0451 73.8882 24.0451 70.8947V32.2543C24.0451 31.7033 24.4808 31.2809 25.0255 31.2809H29.2741C29.8006 31.2809 30.2545 31.7033 30.2545 32.2543V70.913C30.2545 77.6347 26.6233 81.4914 20.3231 81.4914C18.3804 81.4914 16.8553 81.4914 12.6067 79.361L3.81916 74.2371C1.64043 72.9699 0.296875 70.6008 0.296875 68.048V28.9118C0.296875 26.3774 1.64043 23.9899 3.81916 22.7227L37.3172 3.14541C39.4415 1.9333 42.2557 1.9333 44.3618 3.14541L77.8962 22.7411C80.0749 24.0083 81.4184 26.3774 81.4184 28.9302V68.0664C81.4184 70.6008 80.0749 72.9699 77.8962 74.2555L44.3618 93.8328C43.2906 94.4572 42.0741 94.7878 40.8395 94.7878ZM67.9103 56.2025C67.9103 48.8748 63.0081 46.9281 52.7136 45.5507C42.292 44.1549 41.2389 43.4387 41.2389 40.9777C41.2389 38.9392 42.1286 36.2211 49.8449 36.2211C56.7261 36.2211 59.268 37.7271 60.321 42.4286C60.4118 42.8693 60.8112 43.1999 61.2651 43.1999H65.6226C65.895 43.1999 66.1491 43.0897 66.3307 42.8877C66.5123 42.6857 66.603 42.4102 66.5849 42.1347C65.9131 34.0357 60.5934 30.2708 49.8449 30.2708C40.2767 30.2708 34.5756 34.3479 34.5756 41.1981C34.5756 48.6177 40.2585 50.6746 49.4273 51.5928C60.4118 52.6764 61.2651 54.3109 61.2651 56.4963C61.2651 60.2796 58.2512 61.8957 51.1885 61.8957C42.3102 61.8957 40.3674 59.6368 39.7138 55.174C39.6412 54.6965 39.2418 54.3476 38.7516 54.3476H34.4122C33.8676 54.3476 33.45 54.7884 33.45 55.321C33.45 61.0325 36.5183 67.846 51.2066 67.846C61.8098 67.8277 67.9103 63.5853 67.9103 56.2025Z" fill="url(#paint0_linear_30_60)"/>
</g>
<defs>
<linearGradient id="paint0_linear_30_60" x1="40.8577" y1="2.23633" x2="40.8577" y2="94.7878" gradientUnits="userSpaceOnUse">
<stop stop-color="#A836A7"/>
<stop offset="0.52" stop-color="#5E115E"/>
<stop offset="1" stop-color="#330036"/>
</linearGradient>
<clipPath id="clip0_30_60">
<rect width="81.3394" height="94.0299" fill="white" transform="translate(0.169922)"/>
</clipPath>
</defs>
</svg>
