<svg width="106" height="122" viewBox="0 0 106 122" fill="none" xmlns="http://www.w3.org/2000/svg">
<g clip-path="url(#clip0_148_59)">
<path d="M52.903 122.276C51.3338 122.276 49.7411 121.85 48.3593 121.044L33.9083 112.397C31.7535 111.165 32.8075 110.739 33.5101 110.502C36.3909 109.483 36.9765 109.27 40.0447 107.493C40.3726 107.303 40.7942 107.375 41.1221 107.588L52.2238 114.245C52.622 114.482 53.1841 114.482 53.5588 114.245L96.8181 88.9902C97.2163 88.7533 97.4739 88.2795 97.4739 87.8057V37.2962C97.4739 36.7987 97.2163 36.3486 96.7947 36.088L53.5588 10.8569C53.1607 10.62 52.622 10.62 52.2238 10.8569L9.01131 36.1116C8.58972 36.3486 8.33209 36.8224 8.33209 37.3199V87.8057C8.33209 88.2795 8.58972 88.7533 9.01131 88.9665L20.8625 95.8843C27.3034 99.13 31.2382 95.3157 31.2382 91.4541V41.608C31.2382 40.8973 31.8003 40.3524 32.503 40.3524H37.9836C38.6628 40.3524 39.2483 40.8973 39.2483 41.608V91.4778C39.2483 100.149 34.5641 105.124 26.4368 105.124C23.9307 105.124 21.9633 105.124 16.4827 102.376L5.14678 95.7659C2.33621 94.1312 0.603027 91.075 0.603027 87.782V37.2962C0.603027 34.0268 2.33621 30.947 5.14678 29.3123L48.3593 4.05757C51.0996 2.49395 54.7299 2.49395 57.4468 4.05757L100.706 29.336C103.517 30.9707 105.25 34.0268 105.25 37.3199V87.8057C105.25 91.075 103.517 94.1312 100.706 95.7896L57.4468 121.044C56.0649 121.85 54.4957 122.276 52.903 122.276ZM87.8243 72.5012C87.8243 63.0484 81.5005 60.5372 68.2206 58.7604C54.7767 56.9598 53.4183 56.0359 53.4183 52.8613C53.4183 50.2316 54.5659 46.7253 64.52 46.7253C73.3967 46.7253 76.6757 48.6679 78.0342 54.7329C78.1513 55.3014 78.6666 55.7279 79.2521 55.7279H84.8732C85.2246 55.7279 85.5524 55.5857 85.7867 55.3251C86.0209 55.0645 86.138 54.7092 86.1146 54.3538C85.248 43.906 78.3855 39.0493 64.52 39.0493C52.177 39.0493 44.8226 44.3088 44.8226 53.1456C44.8226 62.7168 52.1535 65.3702 63.9813 66.5547C78.1513 67.9525 79.2521 70.061 79.2521 72.8803C79.2521 77.7606 75.3641 79.8454 66.2532 79.8454C54.8001 79.8454 52.2941 76.9314 51.4509 71.1745C51.3572 70.5585 50.8419 70.1084 50.2096 70.1084H44.6118C43.9092 70.1084 43.3705 70.677 43.3705 71.364C43.3705 78.732 47.3287 87.5214 66.2766 87.5214C79.9547 87.4977 87.8243 82.025 87.8243 72.5012Z" fill="white"/>
</g>
<defs>
<clipPath id="clip0_148_59">
<rect width="104.928" height="121.299" fill="white" transform="translate(0.439209)"/>
</clipPath>
</defs>
</svg>
