<svg width="107" height="107" viewBox="0 0 107 107" fill="none" xmlns="http://www.w3.org/2000/svg">
<g clip-path="url(#clip0_151_68)">
<path fill-rule="evenodd" clip-rule="evenodd" d="M0 0H107V107H0V0ZM81.7957 89.6999C76.8363 89.6999 74.032 87.1132 71.8768 83.5942L63.7056 88.3414C66.6574 94.1734 72.6904 98.6232 82.0284 98.6232C91.5782 98.6232 98.6897 93.6642 98.6897 84.6116C98.6897 76.2148 93.8662 72.4796 85.3231 68.8162L82.8095 67.7395C78.4957 65.8714 76.6272 64.6503 76.6272 61.6338C76.6272 59.1933 78.4939 57.3248 81.439 57.3248C84.3263 57.3248 86.1858 58.5424 87.9099 61.6338L95.7396 56.6066C92.4275 50.7809 87.8318 48.5557 81.439 48.5557C72.4595 48.5557 66.7136 54.2967 66.7136 61.8375C66.7136 70.0239 71.5335 73.8964 78.7895 76.9874L81.3031 78.0659C85.8889 80.0717 88.6232 81.2928 88.6232 84.7404C88.6232 87.6178 85.9616 89.6999 81.7957 89.6999ZM42.8288 89.637C39.3743 89.637 37.9374 87.2679 36.3579 84.4654L28.1732 89.4208C30.5442 94.4386 35.2064 98.605 43.2568 98.605C52.1665 98.605 58.2709 93.8662 58.2709 83.4551V49.1299H48.2164V83.3191C48.2164 88.3446 46.1322 89.637 42.8288 89.637Z" fill="white"/>
</g>
<defs>
<clipPath id="clip0_151_68">
<rect width="107" height="107" fill="white"/>
</clipPath>
</defs>
</svg>
