<svg width="95" height="95" viewBox="0 0 95 95" fill="none" xmlns="http://www.w3.org/2000/svg">
<path d="M88.2143 0H6.76451C3.03237 0 0 3.05859 0 6.81328V87.6867C0 91.4414 3.03237 94.5 6.76451 94.5H88.2143C91.9464 94.5 95 91.4414 95 87.6867V6.81328C95 3.05859 91.9464 0 88.2143 0ZM28.7121 81H14.6317V35.9016H28.7333V81H28.7121ZM21.6719 29.7422C17.1551 29.7422 13.5078 26.093 13.5078 21.6211C13.5078 17.1492 17.1551 13.5 21.6719 13.5C26.1674 13.5 29.8359 17.1492 29.8359 21.6211C29.8359 26.1141 26.1886 29.7422 21.6719 29.7422ZM81.4922 81H67.4118V59.0625C67.4118 53.8312 67.3058 47.1023 60.096 47.1023C52.7589 47.1023 51.635 52.7977 51.635 58.6828V81H37.5547V35.9016H51.0625V42.0609H51.2533C53.1406 38.5172 57.7422 34.7836 64.5915 34.7836C78.8415 34.7836 81.4922 44.1281 81.4922 56.2781V81Z" fill="url(#paint0_linear_31_100)"/>
<defs>
<linearGradient id="paint0_linear_31_100" x1="54.0419" y1="128.727" x2="-37.9028" y2="83.4194" gradientUnits="userSpaceOnUse">
<stop stop-color="#330036"/>
<stop offset="0.46" stop-color="#550F56"/>
<stop offset="1" stop-color="#761F75"/>
</linearGradient>
</defs>
</svg>
