<svg width="85" height="91" viewBox="0 0 85 91" fill="none" xmlns="http://www.w3.org/2000/svg">
<g clip-path="url(#clip0_30_64)">
<path d="M69.5611 33.4711C68.6736 33.1563 67.7861 32.8589 66.8987 32.5791C67.0466 31.9319 67.1781 31.2848 67.3095 30.6376C69.331 20.2132 67.9998 11.8351 63.5132 9.07161C59.1909 6.43052 52.1406 9.17655 45.008 15.788C44.3013 16.4352 43.6111 17.1173 42.9537 17.7995C42.51 17.3447 42.0498 16.8899 41.5897 16.4527C34.112 9.38644 26.6179 6.41303 22.1313 9.19404C17.8255 11.8526 16.5436 19.7409 18.3514 29.6057C18.5322 30.5851 18.7294 31.5471 18.9594 32.5266C17.9076 32.8414 16.8723 33.1912 15.9026 33.5585C7.12666 36.7943 0.832275 41.9016 0.832275 47.1838C0.832275 52.6409 7.53752 58.1155 16.6586 61.4387C17.3982 61.701 18.1377 61.9634 18.8937 62.1908C18.6472 63.2402 18.4335 64.2722 18.2363 65.3391C16.5107 75.0464 17.8583 82.7423 22.1642 85.3834C26.6015 88.112 34.0627 85.3134 41.3267 78.5446C41.9019 78.0023 42.4771 77.4426 43.0523 76.848C43.7754 77.6001 44.5314 78.3172 45.2874 79.0168C52.3213 85.4534 59.2731 88.0595 63.5625 85.4184C67.9998 82.6898 69.446 74.4168 67.5725 64.3421C67.4246 63.5725 67.2602 62.7855 67.0795 61.9809C67.6054 61.8235 68.1148 61.6486 68.6243 61.4737C78.107 58.1329 84.9765 52.7283 84.9765 47.1838C84.9765 41.8841 78.5014 36.7418 69.5611 33.4711ZM47.3253 18.6215C53.4389 12.9545 59.1416 10.7332 61.7383 12.3249C64.5157 14.0215 65.5839 20.8778 63.8419 29.8855C63.7268 30.4802 63.6118 31.0574 63.4639 31.6346C59.8154 30.76 56.1177 30.1304 52.4035 29.7806C50.267 26.5273 47.9333 23.414 45.4024 20.493C46.0434 19.8459 46.6679 19.2337 47.3253 18.6215ZM28.3106 56.2614C29.1488 57.7831 30.0034 59.3048 30.9073 60.7915C28.3435 60.4942 25.7962 60.0569 23.2817 59.4797C24.0048 56.9611 24.9087 54.355 25.9605 51.6964C26.7165 53.2356 27.4889 54.7572 28.3106 56.2614ZM23.331 35.2202C25.6976 34.6605 28.212 34.2057 30.8251 33.8559C29.9541 35.3076 29.0995 36.7943 28.2942 38.2985C27.4889 39.7852 26.7001 41.3069 25.9605 42.8461C24.9251 40.24 24.0541 37.6863 23.331 35.2202ZM27.834 47.2712C28.9187 44.8575 30.102 42.4963 31.351 40.17C32.6 37.8438 33.9476 35.5875 35.361 33.3662C37.8262 33.1738 40.3406 33.0688 42.9044 33.0688C45.4682 33.0688 47.9991 33.1738 50.4478 33.3662C51.8447 35.57 53.1759 37.8263 54.4414 40.135C55.7068 42.4438 56.8901 44.805 58.0076 47.2013C56.9065 49.615 55.7233 51.9937 54.4578 54.3375C53.2088 56.6637 51.8776 58.92 50.4807 61.1588C48.032 61.3512 45.4846 61.4387 42.9044 61.4387C40.3242 61.4387 37.8262 61.3512 35.4103 61.1938C33.9805 58.9725 32.6329 56.6987 31.3674 54.3724C30.102 52.0462 28.9351 49.6849 27.834 47.2712ZM57.5146 56.2265C58.3528 54.6873 59.1416 53.1306 59.914 51.5564C60.9658 54.0926 61.8862 56.6637 62.6915 59.3048C60.1441 59.917 57.5639 60.3892 54.9673 60.7041C55.8547 59.2349 56.6929 57.7307 57.5146 56.2265ZM59.8812 42.8461C59.1088 41.3069 58.3199 39.7677 57.4982 38.2635C56.6929 36.7768 55.8547 35.3076 54.9837 33.8559C57.6297 34.2057 60.1606 34.6779 62.5271 35.2551C61.7711 37.8438 60.8837 40.3624 59.8812 42.8461ZM42.9373 23.1691C44.6629 25.163 46.2899 27.2619 47.8019 29.4308C44.5479 29.2733 41.2774 29.2733 38.0234 29.4308C39.634 27.1745 41.2938 25.0756 42.9373 23.1691ZM23.8733 12.4473C26.6343 10.7332 32.7644 13.1819 39.2231 19.2687C39.634 19.6535 40.0448 20.0732 40.4721 20.493C37.9248 23.414 35.5747 26.5273 33.4217 29.7806C29.7076 30.1304 26.0263 30.7425 22.3778 31.5996C22.1642 30.7076 21.9834 29.7981 21.8026 28.8885C20.2578 20.4231 21.2767 14.039 23.8733 12.4473ZM19.8469 58.5527C19.1567 58.3428 18.4829 58.1155 17.809 57.8706C14.3085 56.6987 10.3314 54.8447 7.45535 52.4135C5.79547 51.1891 4.67793 49.3002 4.36568 47.1838C4.36568 43.983 9.55896 39.8902 17.0531 37.1092C17.9898 36.7593 18.943 36.4445 19.8962 36.1472C21.0138 39.9426 22.3614 43.6682 23.9226 47.2712C22.3449 50.9268 20.9809 54.7048 19.8469 58.5527ZM39.0095 75.6936C36.2978 78.3347 33.1588 80.4335 29.7404 81.8678C27.9162 82.7948 25.8126 82.8822 23.9391 82.0952C21.326 80.486 20.2413 74.3118 21.7204 66.0037C21.9012 65.0243 22.0984 64.0448 22.3285 63.0828C26.0098 63.9224 29.724 64.4995 33.4875 64.7969C35.6568 68.0676 38.0398 71.1985 40.5872 74.1369C40.0613 74.6791 39.5354 75.2038 39.0095 75.6936ZM43.0359 71.4433C41.3596 69.5194 39.6833 67.3855 38.0563 65.0942C39.634 65.1642 41.261 65.1992 42.9044 65.1992C44.5972 65.1992 46.257 65.1642 47.9005 65.0767C46.3885 67.2981 44.7615 69.4144 43.0359 71.4433ZM64.5157 76.6905C64.3678 78.8244 63.3817 80.8183 61.804 82.1651C59.1909 83.7743 53.6197 81.6754 47.6047 76.1833C46.9144 75.5536 46.2242 74.8715 45.5175 74.1719C48.032 71.216 50.3492 68.0851 52.4528 64.7969C56.2163 64.4646 59.9633 63.8524 63.6611 62.9604C63.8254 63.6775 63.9733 64.3946 64.1048 65.0942C64.9101 68.8722 65.0416 72.8076 64.5157 76.6905ZM67.5068 57.8881C67.0466 58.0455 66.5864 58.2029 66.1098 58.3428C64.9594 54.5299 63.5461 50.8044 61.919 47.1838C63.4968 43.6157 64.8279 39.9426 65.9455 36.1821C66.8001 36.4445 67.6218 36.7244 68.4106 37.0042C76.0691 39.8027 81.4431 43.9655 81.4431 47.1488C81.4431 50.577 75.7075 55.0021 67.5068 57.8881ZM42.9044 55.2645C47.0623 55.2645 50.4314 51.6789 50.4314 47.2537C50.4314 42.8286 47.0623 39.243 42.9044 39.243C38.7465 39.243 35.3774 42.8286 35.3774 47.2537C35.3774 51.6789 38.7465 55.2645 42.9044 55.2645Z" fill="url(#paint0_linear_30_64)"/>
</g>
<defs>
<linearGradient id="paint0_linear_30_64" x1="42.9044" y1="8.07683" x2="42.9044" y2="86.4392" gradientUnits="userSpaceOnUse">
<stop stop-color="#A836A7"/>
<stop offset="0.52" stop-color="#5E115E"/>
<stop offset="1" stop-color="#330036"/>
</linearGradient>
<clipPath id="clip0_30_64">
<rect width="84.1443" height="89.5522" fill="white" transform="translate(0.832275 0.985092)"/>
</clipPath>
</defs>
</svg>
