<svg width="109" height="117" viewBox="0 0 109 117" fill="none" xmlns="http://www.w3.org/2000/svg">
<g clip-path="url(#clip0_148_63)">
<path d="M88.9839 42.7577C87.839 42.3516 86.6942 41.968 85.5494 41.607C85.7402 40.7722 85.9098 39.9373 86.0794 39.1025C88.687 25.655 86.9698 14.8473 81.1821 11.2824C75.6064 7.87537 66.5114 11.4178 57.3104 19.9466C56.3988 20.7814 55.5084 21.6613 54.6604 22.5413C54.088 21.9547 53.4944 21.368 52.9008 20.804C43.2546 11.6885 33.5872 7.85281 27.7995 11.4403C22.245 14.8699 20.5913 25.0458 22.9234 37.7713C23.1566 39.0348 23.411 40.2758 23.7078 41.5393C22.351 41.9454 21.0153 42.3967 19.7645 42.8705C8.44349 47.0447 0.32373 53.6331 0.32373 60.4471C0.32373 67.4867 8.9735 74.5489 20.7397 78.8359C21.6937 79.1743 22.6478 79.5128 23.623 79.8061C23.305 81.1599 23.0294 82.4911 22.775 83.8674C20.5489 96.3899 22.2874 106.318 27.8419 109.725C33.566 113.244 43.191 109.634 52.5615 100.902C53.3036 100.203 54.0456 99.481 54.7876 98.7139C55.7204 99.6841 56.6956 100.609 57.6708 101.512C66.7446 109.815 75.7124 113.177 81.2457 109.77C86.9698 106.25 88.8355 95.5776 86.4186 82.5814C86.2278 81.5886 86.0158 80.5732 85.7826 79.5354C86.461 79.3323 87.1182 79.1066 87.7754 78.881C100.008 74.5715 108.87 67.5995 108.87 60.4471C108.87 53.6105 100.517 46.977 88.9839 42.7577ZM60.2997 23.6018C68.1862 16.2914 75.5428 13.4259 78.8925 15.4791C82.4753 17.6677 83.8534 26.5124 81.6061 38.1323C81.4577 38.8994 81.3093 39.644 81.1185 40.3886C76.412 39.2605 71.6419 38.4482 66.8506 37.9969C64.0946 33.8002 61.0841 29.784 57.8193 26.016C58.6461 25.1812 59.4517 24.3915 60.2997 23.6018ZM35.7708 72.1573C36.852 74.1202 37.9545 76.0832 39.1205 78.0011C35.8132 77.6175 32.5272 77.0534 29.2835 76.3088C30.2163 73.0598 31.3823 69.6979 32.7392 66.2683C33.7144 68.2539 34.7108 70.2168 35.7708 72.1573ZM29.3471 45.014C32.4 44.292 35.6436 43.7054 39.0145 43.2541C37.8909 45.1268 36.7884 47.0447 35.7496 48.9851C34.7108 50.9029 33.6932 52.8659 32.7392 54.8515C31.4035 51.4896 30.2799 48.1954 29.3471 45.014ZM35.156 60.5599C36.5552 57.4462 38.0817 54.4002 39.6929 51.3993C41.3041 48.3985 43.0426 45.4878 44.8658 42.6223C48.0459 42.3741 51.2895 42.2388 54.5968 42.2388C57.9041 42.2388 61.1689 42.3741 64.3278 42.6223C66.1298 45.4653 67.847 48.3759 69.4795 51.3542C71.1119 54.3325 72.6383 57.3785 74.08 60.4696C72.6595 63.5833 71.1331 66.6519 69.5007 69.6753C67.8894 72.6762 66.1722 75.5868 64.3702 78.4749C61.2113 78.7231 57.9253 78.8359 54.5968 78.8359C51.2683 78.8359 48.0459 78.7231 44.9294 78.52C43.085 75.6545 41.3465 72.7213 39.7141 69.7205C38.0817 66.7196 36.5764 63.6736 35.156 60.5599ZM73.444 72.1121C74.5252 70.1266 75.5428 68.1185 76.5392 66.0878C77.896 69.3595 79.0833 72.6762 80.1221 76.0832C76.836 76.8729 73.5076 77.4821 70.1579 77.8883C71.3027 75.993 72.3839 74.0525 73.444 72.1121ZM76.4968 54.8515C75.5004 52.8659 74.4828 50.8804 73.4228 48.94C72.3839 47.0221 71.3027 45.1268 70.1791 43.2541C73.5924 43.7054 76.8572 44.3146 79.9101 45.0591C78.9349 48.3985 77.79 51.6475 76.4968 54.8515ZM54.6392 29.4681C56.8652 32.0403 58.9641 34.7479 60.9145 37.5457C56.7168 37.3426 52.4979 37.3426 48.3003 37.5457C50.3779 34.635 52.5191 31.9275 54.6392 29.4681ZM30.0467 15.637C33.6084 13.4259 41.5161 16.5847 49.8479 24.4366C50.3779 24.933 50.9079 25.4745 51.4591 26.016C48.1731 29.784 45.1414 33.8002 42.3641 37.9969C37.5729 38.4482 32.824 39.2379 28.1175 40.3435C27.8419 39.1928 27.6087 38.0195 27.3755 36.8462C25.3826 25.9257 26.697 17.6903 30.0467 15.637ZM24.8526 75.113C23.9622 74.8423 23.093 74.5489 22.2238 74.2331C17.7081 72.7213 12.5776 70.3297 8.8675 67.1934C6.72625 65.614 5.28463 63.1772 4.88182 60.4471C4.88182 56.3181 11.5811 51.0383 21.2485 47.4508C22.457 46.9996 23.6866 46.5934 24.9162 46.2098C26.3578 51.106 28.0963 55.9119 30.1103 60.5599C28.0751 65.2756 26.3154 70.1492 24.8526 75.113ZM49.5723 97.2247C46.0742 100.632 42.0249 103.339 37.6153 105.189C35.262 106.385 32.5484 106.498 30.1315 105.483C26.7606 103.407 25.3614 95.4422 27.2695 84.7248C27.5027 83.4613 27.7571 82.1978 28.0539 80.9568C32.8028 82.0398 37.5941 82.7844 42.4489 83.168C45.2474 87.3873 48.3215 91.426 51.6075 95.2166C50.9291 95.9161 50.2507 96.593 49.5723 97.2247ZM54.7664 91.7419C52.6039 89.26 50.4415 86.5073 48.3427 83.5516C50.3779 83.6418 52.4767 83.6869 54.5968 83.6869C56.7804 83.6869 58.9217 83.6418 61.0417 83.529C59.0913 86.3945 56.9924 89.1246 54.7664 91.7419ZM82.4753 98.5108C82.2845 101.263 81.0125 103.836 78.9773 105.573C75.6064 107.649 68.4195 104.941 60.6601 97.8565C59.7697 97.0442 58.8793 96.1643 57.9677 95.2617C61.2113 91.4486 64.2006 87.4098 66.9142 83.168C71.7691 82.7393 76.6028 81.9496 81.3729 80.7989C81.5849 81.724 81.7757 82.649 81.9453 83.5516C82.9841 88.4252 83.1537 93.5018 82.4753 98.5108ZM86.3338 74.2556C85.7402 74.4587 85.1466 74.6617 84.5318 74.8423C83.0477 69.9235 81.2245 65.1176 79.1257 60.4471C81.1609 55.8442 82.8781 51.106 84.3198 46.255C85.4222 46.5934 86.4822 46.9544 87.4998 47.3154C97.3792 50.9255 104.312 56.2955 104.312 60.402C104.312 64.8243 96.9128 70.5327 86.3338 74.2556ZM54.5968 70.8712C59.9605 70.8712 64.3066 66.2458 64.3066 60.5373C64.3066 54.8289 59.9605 50.2035 54.5968 50.2035C49.2331 50.2035 44.887 54.8289 44.887 60.5373C44.887 66.2458 49.2331 70.8712 54.5968 70.8712Z" fill="white"/>
</g>
<defs>
<clipPath id="clip0_148_63">
<rect width="108.546" height="115.522" fill="white" transform="translate(0.32373 0.850769)"/>
</clipPath>
</defs>
</svg>
