<svg width="300" height="154" viewBox="0 0 300 154" fill="none" xmlns="http://www.w3.org/2000/svg">
<path d="M202.675 0L201.737 5.7478C200.287 16.6407 200.812 19.7571 204.787 23.7997L208.625 27.5336L204.65 48.3786C202.275 60.815 199.362 71.2375 197.512 74.6626C195.925 77.6174 194.075 81.9687 193.675 84.306C193.013 87.0991 190.763 89.9068 187.325 92.3912C184.288 94.4198 178.325 99.8589 174.1 104.225C170.725 107.797 168.4 109.987 167.138 110.928L163.013 114.765C161.688 117.264 160.938 119.278 160.65 120.807C160.363 122.38 160.525 123.423 160.95 124.188C161.363 124.923 162.075 125.437 163.05 125.761C164.204 126.079 165.392 126.193 166.575 126.099C169.251 125.884 171.899 125.332 174.475 124.452C175.35 124.173 176.037 123.909 176.637 123.673C177.562 122.336 179.7 119.807 183.487 115.412C193.537 103.754 197.375 97.3746 193.412 99.0945C191.95 99.7119 192.612 98.1537 195.125 95.0372C200.425 88.966 203.462 79.793 209.812 51.0246C214.837 28.3127 214.837 27.9893 218.537 27.9893C220.275 27.9893 225.187 28.3421 225.187 28.3421V0H213.913H202.675ZM250.662 46.5263C249.862 46.5263 248.537 47.9376 247.75 49.4958C246.3 52.2888 248.012 53.9941 269.837 70.0174C282.8 79.6754 293.25 87.9076 292.987 88.5397C292.725 88.9954 282.137 97.0953 269.45 106.43C246.425 123.218 246.3 123.379 248.412 126.804C251.062 130.847 248.412 132.244 278.3 110.311L300 93.9788V81.6894L275.787 64.1079C262.7 54.4645 251.325 46.688 250.662 46.5263ZM49.6 48.2463C48.9375 48.2463 37.5625 56.1844 24.475 65.6661L0 83.2476V95.537L24.3375 113.427C37.8375 123.218 49.2125 131.317 49.7375 131.317C50.2625 131.317 51.325 129.906 52.3875 128.201C53.975 125.246 52.6375 123.997 30.2875 107.356C9 91.6415 6.75 89.4658 8.875 87.7606C10.2 86.6728 20.25 79.352 31.1 71.4286C55.8375 53.5384 54.5125 54.7732 52.525 51.0393C51.7375 49.4958 50.4 48.0993 49.6125 48.2463H49.6ZM158.15 48.5844C154.5 48.555 146.65 55.0966 123.15 77.6615C122.138 80.4987 122.05 82.4538 122.512 83.718C122.812 84.5853 123.363 85.188 124.125 85.629C124.875 86.0701 125.85 86.3347 126.925 86.4376C129.063 86.6581 131.587 86.2612 133.625 85.7907L135 85.4232C135.471 84.681 136.089 84.0855 136.8 83.6886C138.25 82.7478 144.338 76.2209 150.425 69.2235C161.138 56.4637 163.65 50.7012 159.288 48.8343C158.93 48.6668 158.535 48.582 158.15 48.5844ZM185.6 57.4486C182.387 57.5515 176.6 61.9322 166.688 71.2375C161.713 75.9857 158.563 78.5435 156.875 79.0727L150.325 85.1586C147.863 90.4507 147.5 93.7289 148.15 95.537C148.313 95.983 148.549 96.3868 148.845 96.7249C149.141 97.063 149.491 97.3287 149.875 97.5069C150.83 97.9503 151.848 98.1749 152.875 98.1684C155.328 98.1376 157.767 97.7173 160.125 96.9188C161.354 96.5311 162.567 96.0798 163.762 95.5664L164.125 95.39L164.787 94.9784C166.037 93.0821 168.912 89.5099 172.512 85.3938C183.887 72.487 189.7 63.3141 188.513 59.8889C187.975 58.2278 187.05 57.3898 185.6 57.4486ZM155.3 73.3249C154.375 73.4425 152.3 75.3242 148.563 79.1756C143.163 84.7911 137.275 88.0252 135.238 86.5846C134.764 86.7104 134.289 86.828 133.812 86.9374C131.737 87.4225 129.15 87.8194 126.838 87.5989C125.748 87.5213 124.68 87.2073 123.688 86.6728C122.751 86.1695 122.004 85.2805 121.588 84.1737C121.125 82.8507 121.125 81.2043 121.65 79.1021L113.525 86.9521L95.1375 104.842V133.846L155.387 78.029C155.376 77.4179 155.443 76.8082 155.587 76.2209C156.05 74.251 156.025 73.2514 155.3 73.3396V73.3249ZM181.225 82.7184C180.313 82.7184 178.787 84.2325 176.35 87.2755C173.037 91.4357 167.825 95.4635 165.062 96.2867L164.637 96.5513C164.184 96.7716 163.725 96.9775 163.262 97.1688C162.512 97.4628 161.538 97.8156 160.413 98.1684C158.163 98.8887 155.363 99.5502 152.863 99.4767C151.684 99.4749 150.517 99.2054 149.425 98.6829C148.396 98.1841 147.572 97.2357 147.125 96.0368C146.4 93.9935 146.688 91.1269 148.275 87.055L95.125 136.286V154H118.475L168 108.253C169.287 106.577 171.225 104.284 173.837 101.417C180.837 93.7877 182.425 91.1563 182.425 87.2608C182.425 84.2325 182.138 82.7037 181.225 82.7037V82.7184ZM193.012 111.384L188.775 116.353C186.4 118.999 182.162 122.262 179.262 123.659L178.688 123.953L178.65 124.026L178.525 124.173C178.412 124.276 178.363 124.291 178.275 124.335C177.117 124.85 175.941 125.306 174.75 125.702C172.101 126.609 169.377 127.175 166.625 127.393C165.324 127.491 164.017 127.357 162.75 126.996C161.65 126.711 160.679 125.957 160.025 124.879C159.425 123.791 159.25 122.336 159.588 120.542C159.856 119.265 160.255 118.031 160.775 116.867L120.812 154H173.962L180.313 145.444C189.038 133.478 193.012 124.923 193.012 117.602V111.384Z" fill="white"/>
</svg>
