<svg width="107" height="107" viewBox="0 0 107 107" fill="none" xmlns="http://www.w3.org/2000/svg">
<g clip-path="url(#clip0_151_58)">
<path d="M90.95 0H16.05C7.18583 0 0 7.18583 0 16.05V90.95C0 99.8142 7.18583 107 16.05 107H90.95C99.8142 107 107 99.8142 107 90.95V16.05C107 7.18583 99.8142 0 90.95 0Z" fill="white"/>
<path d="M48.6934 59.3516H62.0684V50.7832H24.6602V59.3516H38.0352V97.5957H48.6934V59.3516ZM66.248 95.5059C67.9408 96.3836 70.0098 97.0314 72.3086 97.4703C74.6074 97.9092 77.1152 98.1182 79.623 98.1182C82.1309 98.1182 84.4297 97.8883 86.7285 97.4076C89.0273 96.927 90.9082 96.1328 92.5801 95.1088C94.2728 94.0012 95.7148 92.601 96.5508 90.7201C97.3867 88.8393 98.0346 86.7494 98.0346 84.0326C98.0346 82.1309 97.742 80.4799 97.1777 79.017C96.6135 77.5541 95.7984 76.3002 94.6699 75.2553C93.6041 74.1477 92.3711 73.1654 90.9082 72.3295C89.4453 71.4936 87.7734 70.6158 85.8926 69.8217C84.5133 69.2574 83.3848 68.7141 82.1309 68.1707C81.0441 67.6273 80.1037 67.084 79.4141 66.5406C78.6408 65.9764 78.0557 65.3912 77.6377 64.7852C77.2197 64.1582 77.0107 63.4686 77.0107 62.6953C77.0107 61.9848 77.1967 61.3369 77.575 60.7518C77.9533 60.1666 78.4736 59.6859 79.1424 59.268C79.8111 58.85 80.6471 58.5365 81.6502 58.3066C82.6324 58.0768 83.7191 57.9723 84.9939 57.9723C85.8717 57.9723 86.7912 58.037 87.7107 58.1687C88.6721 58.3004 89.6543 58.5031 90.6365 58.7748C91.6187 59.0464 92.5801 59.3808 93.5623 59.7988C94.4818 60.2168 95.3387 60.6974 96.0701 61.2408V51.4185C94.4818 50.8125 92.7264 50.3527 90.8455 50.0601C88.9646 49.7675 86.8748 49.6212 84.367 49.6212C81.8592 49.6212 79.5604 49.8929 77.2615 50.4154C74.9627 50.9378 73.0818 51.7738 71.41 52.9232C69.7172 54.0517 68.4842 55.431 67.4393 57.3119C66.457 59.0673 65.9764 61.0736 65.9764 63.5814C65.9764 66.7162 66.875 69.433 68.6932 71.5228C70.4904 73.8216 73.2908 75.4935 76.8436 77.1654C78.2855 77.7505 79.5604 78.3357 80.8143 78.9C82.0682 79.4642 83.1131 80.0494 83.949 80.6554C84.8477 81.2615 85.5582 81.9302 86.0389 82.6408C86.5613 83.3513 86.833 84.1873 86.833 85.1486C86.833 85.8173 86.67 86.4443 86.3523 87.0294C86.0347 87.6146 85.5373 88.1162 84.8686 88.5341C84.1998 88.9521 83.3848 89.2865 82.3607 89.5373C81.3785 89.7671 80.2709 89.8925 78.808 89.8925C76.5092 89.8925 74.2103 89.4955 72.1205 88.7013C69.8217 87.9072 67.7318 86.716 66.248 85.4746V95.5059Z" fill="#571058"/>
</g>
<defs>
<clipPath id="clip0_151_58">
<rect width="107" height="107" fill="white"/>
</clipPath>
</defs>
</svg>
